<svg width="1531" height="1347" xmlns="http://www.w3.org/2000/svg" xmlns:xlink="http://www.w3.org/1999/xlink" xml:space="preserve" overflow="hidden"><defs><clipPath id="clip0"><rect x="1278" y="380" width="1531" height="1347"/></clipPath></defs><g clip-path="url(#clip0)" transform="translate(-1278 -380)"><path d="M1284.5 1086C1284.5 1001.78 1353.9 933.5 1439.5 933.5 1525.1 933.5 1594.5 1001.78 1594.5 1086 1594.5 1170.22 1525.1 1238.5 1439.5 1238.5 1353.9 1238.5 1284.5 1170.22 1284.5 1086Z" stroke="#000000" stroke-width="4.58333" stroke-linecap="butt" stroke-linejoin="miter" stroke-miterlimit="8" stroke-opacity="1" fill="none" fill-rule="evenodd"/><text fill="#000000" fill-opacity="1" font-family="Calibri,Calibri_MSFontService,sans-serif" font-style="normal" font-variant="normal" font-weight="400" font-stretch="normal" font-size="147" text-anchor="start" direction="ltr" writing-mode="lr-tb" unicode-bidi="normal" text-decoration="none" transform="matrix(1 0 0 1 1403.5 1134)">T</text><path d="M1910.5 1548C1910.5 1463.78 1979.67 1395.5 2065 1395.5 2150.33 1395.5 2219.5 1463.78 2219.5 1548 2219.5 1632.22 2150.33 1700.5 2065 1700.5 1979.67 1700.5 1910.5 1632.22 1910.5 1548Z" stroke="#000000" stroke-width="4.58333" stroke-linecap="butt" stroke-linejoin="miter" stroke-miterlimit="8" stroke-opacity="1" fill="none" fill-rule="evenodd"/><text fill="#000000" fill-opacity="1" font-family="Calibri,Calibri_MSFontService,sans-serif" font-style="normal" font-variant="normal" font-weight="400" font-stretch="normal" font-size="147" text-anchor="start" direction="ltr" writing-mode="lr-tb" unicode-bidi="normal" text-decoration="none" transform="matrix(1 0 0 1 2028.81 1597)">Y</text><path d="M1910.5 537C1910.5 452.777 1979.67 384.5 2065 384.5 2150.33 384.5 2219.5 452.777 2219.5 537 2219.5 621.224 2150.33 689.5 2065 689.5 1979.67 689.5 1910.5 621.224 1910.5 537Z" stroke="#000000" stroke-width="4.58333" stroke-linecap="butt" stroke-linejoin="miter" stroke-miterlimit="8" stroke-opacity="1" fill="none" fill-rule="evenodd"/><text fill="#000000" fill-opacity="1" font-family="Calibri,Calibri_MSFontService,sans-serif" font-style="normal" font-variant="normal" font-weight="400" font-stretch="normal" font-size="147" text-anchor="start" direction="ltr" writing-mode="lr-tb" unicode-bidi="normal" text-decoration="none" transform="matrix(1 0 0 1 2028.81 585)">Y</text><path d="M2496.5 1086C2496.5 1001.78 2565.9 933.5 2651.5 933.5 2737.1 933.5 2806.5 1001.78 2806.5 1086 2806.5 1170.22 2737.1 1238.5 2651.5 1238.5 2565.9 1238.5 2496.5 1170.22 2496.5 1086Z" stroke="#000000" stroke-width="4.58333" stroke-linecap="butt" stroke-linejoin="miter" stroke-miterlimit="8" stroke-opacity="1" fill="none" fill-rule="evenodd"/><text fill="#000000" fill-opacity="1" font-family="Calibri,Calibri_MSFontService,sans-serif" font-style="normal" font-variant="normal" font-weight="400" font-stretch="normal" font-size="147" text-anchor="start" direction="ltr" writing-mode="lr-tb" unicode-bidi="normal" text-decoration="none" transform="matrix(1 0 0 1 2611.76 1134)">C</text><path d="M1549.6 1192.02 1936.34 1427.14 1935.15 1429.1 1548.4 1193.98ZM1938.97 1413.99 1955.32 1440.03 1924.68 1437.49Z" fill="#000000" fill-rule="nonzero" fill-opacity="1"/><path d="M2066.15 689 2066.15 1372.62 2063.85 1372.62 2063.85 689ZM2078.75 1368.04 2065 1395.54 2051.25 1368.04Z" fill="#000000" fill-rule="nonzero" fill-opacity="1"/><path d="M0.686977-0.917058 422.303 314.92 420.929 316.754-0.686977 0.917058ZM426.192 302.084 439.957 329.576 409.704 324.094Z" fill="#000000" fill-rule="nonzero" fill-opacity="1" transform="matrix(-1 0 0 1 1930.96 619)"/><path d="M0.639341-0.950882 349.022 233.29 347.743 235.191-0.639341 0.950882ZM352.251 220.272 367.4 247.027 336.907 243.094Z" fill="#000000" fill-rule="nonzero" fill-opacity="1" transform="matrix(-1 0 0 1 2541.4 1193)"/></g></svg>